<?xml version="1.0" encoding="UTF-8" standalone="no"?>
<!DOCTYPE svg PUBLIC "-//W3C//DTD SVG 1.1//EN" "http://www.w3.org/Graphics/SVG/1.1/DTD/svg11.dtd">
<svg width="100%" height="100%" viewBox="0 0 50 42" version="1.1" xmlns="http://www.w3.org/2000/svg" xmlns:xlink="http://www.w3.org/1999/xlink" xml:space="preserve" xmlns:serif="http://www.serif.com/" style="fill-rule:evenodd;clip-rule:evenodd;stroke-linejoin:round;stroke-miterlimit:2;">
    <g id="Plan-de-travail1" serif:id="Plan de travail1" transform="matrix(1,0,0,1,0,-4)">
        <rect x="0" y="4" width="50" height="42" style="fill:none;"/>
        <g transform="matrix(1,0,0,1.33333,0.5,-1.66667)">
            <path d="M46,6.5C46,5.672 45.105,5 44,5C36.792,5 12.19,5 4.993,5C4.464,5 3.957,5.157 3.584,5.438C3.21,5.718 3,6.098 3,6.495C3,7.412 3,8.582 3,9.5C3,10.328 3.895,11 5,11C12.206,11 36.794,11 44,11C45.105,11 46,10.328 46,9.5C46,8.584 46,7.416 46,6.5Z" style="fill:white;"/>
        </g>
        <g transform="matrix(1,0,0,1.33333,0.5,14.3333)">
            <path d="M46,6.5C46,5.672 45.105,5 44,5C36.792,5 12.19,5 4.993,5C4.464,5 3.957,5.157 3.584,5.438C3.21,5.718 3,6.098 3,6.495C3,7.412 3,8.582 3,9.5C3,10.328 3.895,11 5,11C12.206,11 36.794,11 44,11C45.105,11 46,10.328 46,9.5C46,8.584 46,7.416 46,6.5Z" style="fill:white;"/>
        </g>
        <g transform="matrix(1,0,0,1.33333,0.5,30.3333)">
            <path d="M46,6.5C46,5.672 45.105,5 44,5C36.792,5 12.19,5 4.993,5C4.464,5 3.957,5.157 3.584,5.438C3.21,5.718 3,6.098 3,6.495C3,7.412 3,8.582 3,9.5C3,10.328 3.895,11 5,11C12.206,11 36.794,11 44,11C45.105,11 46,10.328 46,9.5C46,8.584 46,7.416 46,6.5Z" style="fill:white;"/>
        </g>
    </g>
</svg>
